<?xml version="1.0" encoding="utf-8" standalone="no"?>
<!DOCTYPE svg PUBLIC "-//W3C//DTD SVG 1.1//EN"
  "http://www.w3.org/Graphics/SVG/1.1/DTD/svg11.dtd">
<svg xmlns:xlink="http://www.w3.org/1999/xlink" width="951.882031pt" height="513.416406pt" viewBox="0 0 951.882031 513.416406" xmlns="http://www.w3.org/2000/svg" version="1.1">
 <metadata>
  <rdf:RDF xmlns:dc="http://purl.org/dc/elements/1.1/" xmlns:cc="http://creativecommons.org/ns#" xmlns:rdf="http://www.w3.org/1999/02/22-rdf-syntax-ns#">
   <cc:Work>
    <dc:type rdf:resource="http://purl.org/dc/dcmitype/StillImage"/>
    <dc:date>2025-04-02T08:37:22.437664</dc:date>
    <dc:format>image/svg+xml</dc:format>
    <dc:creator>
     <cc:Agent>
      <dc:title>Matplotlib v3.9.2, https://matplotlib.org/</dc:title>
     </cc:Agent>
    </dc:creator>
   </cc:Work>
  </rdf:RDF>
 </metadata>
 <defs>
  <style type="text/css">*{stroke-linejoin: round; stroke-linecap: butt}</style>
 </defs>
 <g id="figure_1">
  <g id="patch_1">
   <path d="M 0 513.416406 
L 951.882031 513.416406 
L 951.882031 0 
L 0 0 
z
" style="fill: #ffffff"/>
  </g>
  <g id="axes_1">
   <g id="patch_2">
    <path d="M 51.882031 468.117656 
L 944.682031 468.117656 
L 944.682031 24.597656 
L 51.882031 24.597656 
z
" style="fill: #ffffff"/>
   </g>
   <g id="PolyCollection_1">
    <defs>
     <path id="mcddb2ed021" d="M 51.882031 -451.821886 
L 51.882031 -256.647457 
L 84.948698 -276.32036 
L 151.082031 -303.005652 
L 184.148698 -330.171976 
L 217.215365 -281.245241 
L 250.282031 -307.475516 
L 316.415365 -237.507499 
L 779.348698 -97.930154 
L 812.415365 -161.991599 
L 845.482031 -65.45875 
L 878.548698 -152.701871 
L 911.615365 -106.750764 
L 944.682031 -140.237785 
L 944.682031 -402.603166 
L 944.682031 -402.603166 
L 911.615365 -362.888353 
L 878.548698 -370.174943 
L 845.482031 -383.476818 
L 812.415365 -376.782583 
L 779.348698 -387.976038 
L 316.415365 -441.755052 
L 250.282031 -453.861818 
L 217.215365 -450.330741 
L 184.148698 -445.214195 
L 151.082031 -446.870789 
L 84.948698 -443.609876 
L 51.882031 -451.821886 
z
" style="stroke: #ffa500; stroke-opacity: 0.3"/>
    </defs>
    <g clip-path="url(#pede2c55dc0)">
     <use xlink:href="#mcddb2ed021" x="0" y="513.416406" style="fill: #ffa500; fill-opacity: 0.3; stroke: #ffa500; stroke-opacity: 0.3"/>
    </g>
   </g>
   <g id="matplotlib.axis_1">
    <g id="xtick_1">
     <g id="line2d_1">
      <path d="M 51.882031 468.117656 
L 51.882031 24.597656 
" clip-path="url(#pede2c55dc0)" style="fill: none; stroke-dasharray: 1.85,0.8; stroke-dashoffset: 0; stroke: #d3d3d3; stroke-width: 0.5"/>
     </g>
     <g id="line2d_2">
      <defs>
       <path id="m8410d4251e" d="M 0 0 
L 0 3.5 
" style="stroke: #000000; stroke-width: 0.8"/>
      </defs>
      <g>
       <use xlink:href="#m8410d4251e" x="51.882031" y="468.117656" style="stroke: #000000; stroke-width: 0.8"/>
      </g>
     </g>
     <g id="text_1">
      <!-- 1995 -->
      <g transform="translate(35.339531 484.995625) scale(0.13 -0.13)">
       <defs>
        <path id="DejaVuSans-31" d="M 794 531 
L 1825 531 
L 1825 4091 
L 703 3866 
L 703 4441 
L 1819 4666 
L 2450 4666 
L 2450 531 
L 3481 531 
L 3481 0 
L 794 0 
L 794 531 
z
" transform="scale(0.015625)"/>
        <path id="DejaVuSans-39" d="M 703 97 
L 703 672 
Q 941 559 1184 500 
Q 1428 441 1663 441 
Q 2288 441 2617 861 
Q 2947 1281 2994 2138 
Q 2813 1869 2534 1725 
Q 2256 1581 1919 1581 
Q 1219 1581 811 2004 
Q 403 2428 403 3163 
Q 403 3881 828 4315 
Q 1253 4750 1959 4750 
Q 2769 4750 3195 4129 
Q 3622 3509 3622 2328 
Q 3622 1225 3098 567 
Q 2575 -91 1691 -91 
Q 1453 -91 1209 -44 
Q 966 3 703 97 
z
M 1959 2075 
Q 2384 2075 2632 2365 
Q 2881 2656 2881 3163 
Q 2881 3666 2632 3958 
Q 2384 4250 1959 4250 
Q 1534 4250 1286 3958 
Q 1038 3666 1038 3163 
Q 1038 2656 1286 2365 
Q 1534 2075 1959 2075 
z
" transform="scale(0.015625)"/>
        <path id="DejaVuSans-35" d="M 691 4666 
L 3169 4666 
L 3169 4134 
L 1269 4134 
L 1269 2991 
Q 1406 3038 1543 3061 
Q 1681 3084 1819 3084 
Q 2600 3084 3056 2656 
Q 3513 2228 3513 1497 
Q 3513 744 3044 326 
Q 2575 -91 1722 -91 
Q 1428 -91 1123 -41 
Q 819 9 494 109 
L 494 744 
Q 775 591 1075 516 
Q 1375 441 1709 441 
Q 2250 441 2565 725 
Q 2881 1009 2881 1497 
Q 2881 1984 2565 2268 
Q 2250 2553 1709 2553 
Q 1456 2553 1204 2497 
Q 953 2441 691 2322 
L 691 4666 
z
" transform="scale(0.015625)"/>
       </defs>
       <use xlink:href="#DejaVuSans-31"/>
       <use xlink:href="#DejaVuSans-39" x="63.623047"/>
       <use xlink:href="#DejaVuSans-39" x="127.246094"/>
       <use xlink:href="#DejaVuSans-35" x="190.869141"/>
      </g>
     </g>
    </g>
    <g id="xtick_2">
     <g id="line2d_3">
      <path d="M 217.215365 468.117656 
L 217.215365 24.597656 
" clip-path="url(#pede2c55dc0)" style="fill: none; stroke-dasharray: 1.85,0.8; stroke-dashoffset: 0; stroke: #d3d3d3; stroke-width: 0.5"/>
     </g>
     <g id="line2d_4">
      <g>
       <use xlink:href="#m8410d4251e" x="217.215365" y="468.117656" style="stroke: #000000; stroke-width: 0.8"/>
      </g>
     </g>
     <g id="text_2">
      <!-- 2000 -->
      <g transform="translate(200.672865 484.995625) scale(0.13 -0.13)">
       <defs>
        <path id="DejaVuSans-32" d="M 1228 531 
L 3431 531 
L 3431 0 
L 469 0 
L 469 531 
Q 828 903 1448 1529 
Q 2069 2156 2228 2338 
Q 2531 2678 2651 2914 
Q 2772 3150 2772 3378 
Q 2772 3750 2511 3984 
Q 2250 4219 1831 4219 
Q 1534 4219 1204 4116 
Q 875 4013 500 3803 
L 500 4441 
Q 881 4594 1212 4672 
Q 1544 4750 1819 4750 
Q 2544 4750 2975 4387 
Q 3406 4025 3406 3419 
Q 3406 3131 3298 2873 
Q 3191 2616 2906 2266 
Q 2828 2175 2409 1742 
Q 1991 1309 1228 531 
z
" transform="scale(0.015625)"/>
        <path id="DejaVuSans-30" d="M 2034 4250 
Q 1547 4250 1301 3770 
Q 1056 3291 1056 2328 
Q 1056 1369 1301 889 
Q 1547 409 2034 409 
Q 2525 409 2770 889 
Q 3016 1369 3016 2328 
Q 3016 3291 2770 3770 
Q 2525 4250 2034 4250 
z
M 2034 4750 
Q 2819 4750 3233 4129 
Q 3647 3509 3647 2328 
Q 3647 1150 3233 529 
Q 2819 -91 2034 -91 
Q 1250 -91 836 529 
Q 422 1150 422 2328 
Q 422 3509 836 4129 
Q 1250 4750 2034 4750 
z
" transform="scale(0.015625)"/>
       </defs>
       <use xlink:href="#DejaVuSans-32"/>
       <use xlink:href="#DejaVuSans-30" x="63.623047"/>
       <use xlink:href="#DejaVuSans-30" x="127.246094"/>
       <use xlink:href="#DejaVuSans-30" x="190.869141"/>
      </g>
     </g>
    </g>
    <g id="xtick_3">
     <g id="line2d_5">
      <path d="M 382.548698 468.117656 
L 382.548698 24.597656 
" clip-path="url(#pede2c55dc0)" style="fill: none; stroke-dasharray: 1.85,0.8; stroke-dashoffset: 0; stroke: #d3d3d3; stroke-width: 0.5"/>
     </g>
     <g id="line2d_6">
      <g>
       <use xlink:href="#m8410d4251e" x="382.548698" y="468.117656" style="stroke: #000000; stroke-width: 0.8"/>
      </g>
     </g>
     <g id="text_3">
      <!-- 2005 -->
      <g transform="translate(366.006198 484.995625) scale(0.13 -0.13)">
       <use xlink:href="#DejaVuSans-32"/>
       <use xlink:href="#DejaVuSans-30" x="63.623047"/>
       <use xlink:href="#DejaVuSans-30" x="127.246094"/>
       <use xlink:href="#DejaVuSans-35" x="190.869141"/>
      </g>
     </g>
    </g>
    <g id="xtick_4">
     <g id="line2d_7">
      <path d="M 547.882031 468.117656 
L 547.882031 24.597656 
" clip-path="url(#pede2c55dc0)" style="fill: none; stroke-dasharray: 1.85,0.8; stroke-dashoffset: 0; stroke: #d3d3d3; stroke-width: 0.5"/>
     </g>
     <g id="line2d_8">
      <g>
       <use xlink:href="#m8410d4251e" x="547.882031" y="468.117656" style="stroke: #000000; stroke-width: 0.8"/>
      </g>
     </g>
     <g id="text_4">
      <!-- 2010 -->
      <g transform="translate(531.339531 484.995625) scale(0.13 -0.13)">
       <use xlink:href="#DejaVuSans-32"/>
       <use xlink:href="#DejaVuSans-30" x="63.623047"/>
       <use xlink:href="#DejaVuSans-31" x="127.246094"/>
       <use xlink:href="#DejaVuSans-30" x="190.869141"/>
      </g>
     </g>
    </g>
    <g id="xtick_5">
     <g id="line2d_9">
      <path d="M 713.215365 468.117656 
L 713.215365 24.597656 
" clip-path="url(#pede2c55dc0)" style="fill: none; stroke-dasharray: 1.85,0.8; stroke-dashoffset: 0; stroke: #d3d3d3; stroke-width: 0.5"/>
     </g>
     <g id="line2d_10">
      <g>
       <use xlink:href="#m8410d4251e" x="713.215365" y="468.117656" style="stroke: #000000; stroke-width: 0.8"/>
      </g>
     </g>
     <g id="text_5">
      <!-- 2015 -->
      <g transform="translate(696.672865 484.995625) scale(0.13 -0.13)">
       <use xlink:href="#DejaVuSans-32"/>
       <use xlink:href="#DejaVuSans-30" x="63.623047"/>
       <use xlink:href="#DejaVuSans-31" x="127.246094"/>
       <use xlink:href="#DejaVuSans-35" x="190.869141"/>
      </g>
     </g>
    </g>
    <g id="xtick_6">
     <g id="line2d_11">
      <path d="M 878.548698 468.117656 
L 878.548698 24.597656 
" clip-path="url(#pede2c55dc0)" style="fill: none; stroke-dasharray: 1.85,0.8; stroke-dashoffset: 0; stroke: #d3d3d3; stroke-width: 0.5"/>
     </g>
     <g id="line2d_12">
      <g>
       <use xlink:href="#m8410d4251e" x="878.548698" y="468.117656" style="stroke: #000000; stroke-width: 0.8"/>
      </g>
     </g>
     <g id="text_6">
      <!-- 2020 -->
      <g transform="translate(862.006198 484.995625) scale(0.13 -0.13)">
       <use xlink:href="#DejaVuSans-32"/>
       <use xlink:href="#DejaVuSans-30" x="63.623047"/>
       <use xlink:href="#DejaVuSans-32" x="127.246094"/>
       <use xlink:href="#DejaVuSans-30" x="190.869141"/>
      </g>
     </g>
    </g>
    <g id="text_7">
     <!-- Years -->
     <g transform="translate(478.49375 503.096875) scale(0.15 -0.15)">
      <defs>
       <path id="DejaVuSans-59" d="M -13 4666 
L 666 4666 
L 1959 2747 
L 3244 4666 
L 3922 4666 
L 2272 2222 
L 2272 0 
L 1638 0 
L 1638 2222 
L -13 4666 
z
" transform="scale(0.015625)"/>
       <path id="DejaVuSans-65" d="M 3597 1894 
L 3597 1613 
L 953 1613 
Q 991 1019 1311 708 
Q 1631 397 2203 397 
Q 2534 397 2845 478 
Q 3156 559 3463 722 
L 3463 178 
Q 3153 47 2828 -22 
Q 2503 -91 2169 -91 
Q 1331 -91 842 396 
Q 353 884 353 1716 
Q 353 2575 817 3079 
Q 1281 3584 2069 3584 
Q 2775 3584 3186 3129 
Q 3597 2675 3597 1894 
z
M 3022 2063 
Q 3016 2534 2758 2815 
Q 2500 3097 2075 3097 
Q 1594 3097 1305 2825 
Q 1016 2553 972 2059 
L 3022 2063 
z
" transform="scale(0.015625)"/>
       <path id="DejaVuSans-61" d="M 2194 1759 
Q 1497 1759 1228 1600 
Q 959 1441 959 1056 
Q 959 750 1161 570 
Q 1363 391 1709 391 
Q 2188 391 2477 730 
Q 2766 1069 2766 1631 
L 2766 1759 
L 2194 1759 
z
M 3341 1997 
L 3341 0 
L 2766 0 
L 2766 531 
Q 2569 213 2275 61 
Q 1981 -91 1556 -91 
Q 1019 -91 701 211 
Q 384 513 384 1019 
Q 384 1609 779 1909 
Q 1175 2209 1959 2209 
L 2766 2209 
L 2766 2266 
Q 2766 2663 2505 2880 
Q 2244 3097 1772 3097 
Q 1472 3097 1187 3025 
Q 903 2953 641 2809 
L 641 3341 
Q 956 3463 1253 3523 
Q 1550 3584 1831 3584 
Q 2591 3584 2966 3190 
Q 3341 2797 3341 1997 
z
" transform="scale(0.015625)"/>
       <path id="DejaVuSans-72" d="M 2631 2963 
Q 2534 3019 2420 3045 
Q 2306 3072 2169 3072 
Q 1681 3072 1420 2755 
Q 1159 2438 1159 1844 
L 1159 0 
L 581 0 
L 581 3500 
L 1159 3500 
L 1159 2956 
Q 1341 3275 1631 3429 
Q 1922 3584 2338 3584 
Q 2397 3584 2469 3576 
Q 2541 3569 2628 3553 
L 2631 2963 
z
" transform="scale(0.015625)"/>
       <path id="DejaVuSans-73" d="M 2834 3397 
L 2834 2853 
Q 2591 2978 2328 3040 
Q 2066 3103 1784 3103 
Q 1356 3103 1142 2972 
Q 928 2841 928 2578 
Q 928 2378 1081 2264 
Q 1234 2150 1697 2047 
L 1894 2003 
Q 2506 1872 2764 1633 
Q 3022 1394 3022 966 
Q 3022 478 2636 193 
Q 2250 -91 1575 -91 
Q 1294 -91 989 -36 
Q 684 19 347 128 
L 347 722 
Q 666 556 975 473 
Q 1284 391 1588 391 
Q 1994 391 2212 530 
Q 2431 669 2431 922 
Q 2431 1156 2273 1281 
Q 2116 1406 1581 1522 
L 1381 1569 
Q 847 1681 609 1914 
Q 372 2147 372 2553 
Q 372 3047 722 3315 
Q 1072 3584 1716 3584 
Q 2034 3584 2315 3537 
Q 2597 3491 2834 3397 
z
" transform="scale(0.015625)"/>
      </defs>
      <use xlink:href="#DejaVuSans-59"/>
      <use xlink:href="#DejaVuSans-65" x="47.833984"/>
      <use xlink:href="#DejaVuSans-61" x="109.357422"/>
      <use xlink:href="#DejaVuSans-72" x="170.636719"/>
      <use xlink:href="#DejaVuSans-73" x="211.75"/>
     </g>
    </g>
   </g>
   <g id="matplotlib.axis_2">
    <g id="ytick_1">
     <g id="line2d_13">
      <path d="M 51.882031 460.122607 
L 944.682031 460.122607 
" clip-path="url(#pede2c55dc0)" style="fill: none; stroke-dasharray: 1.85,0.8; stroke-dashoffset: 0; stroke: #d3d3d3; stroke-width: 0.5"/>
     </g>
     <g id="line2d_14">
      <defs>
       <path id="m5f138c3572" d="M 0 0 
L -3.5 0 
" style="stroke: #000000; stroke-width: 0.8"/>
      </defs>
      <g>
       <use xlink:href="#m5f138c3572" x="51.882031" y="460.122607" style="stroke: #000000; stroke-width: 0.8"/>
      </g>
     </g>
     <g id="text_8">
      <!-- −5 -->
      <g transform="translate(25.717188 465.061592) scale(0.13 -0.13)">
       <defs>
        <path id="DejaVuSans-2212" d="M 678 2272 
L 4684 2272 
L 4684 1741 
L 678 1741 
L 678 2272 
z
" transform="scale(0.015625)"/>
       </defs>
       <use xlink:href="#DejaVuSans-2212"/>
       <use xlink:href="#DejaVuSans-35" x="83.789062"/>
      </g>
     </g>
    </g>
    <g id="ytick_2">
     <g id="line2d_15">
      <path d="M 51.882031 404.666673 
L 944.682031 404.666673 
" clip-path="url(#pede2c55dc0)" style="fill: none; stroke-dasharray: 1.85,0.8; stroke-dashoffset: 0; stroke: #d3d3d3; stroke-width: 0.5"/>
     </g>
     <g id="line2d_16">
      <g>
       <use xlink:href="#m5f138c3572" x="51.882031" y="404.666673" style="stroke: #000000; stroke-width: 0.8"/>
      </g>
     </g>
     <g id="text_9">
      <!-- −4 -->
      <g transform="translate(25.717188 409.605657) scale(0.13 -0.13)">
       <defs>
        <path id="DejaVuSans-34" d="M 2419 4116 
L 825 1625 
L 2419 1625 
L 2419 4116 
z
M 2253 4666 
L 3047 4666 
L 3047 1625 
L 3713 1625 
L 3713 1100 
L 3047 1100 
L 3047 0 
L 2419 0 
L 2419 1100 
L 313 1100 
L 313 1709 
L 2253 4666 
z
" transform="scale(0.015625)"/>
       </defs>
       <use xlink:href="#DejaVuSans-2212"/>
       <use xlink:href="#DejaVuSans-34" x="83.789062"/>
      </g>
     </g>
    </g>
    <g id="ytick_3">
     <g id="line2d_17">
      <path d="M 51.882031 349.210738 
L 944.682031 349.210738 
" clip-path="url(#pede2c55dc0)" style="fill: none; stroke-dasharray: 1.85,0.8; stroke-dashoffset: 0; stroke: #d3d3d3; stroke-width: 0.5"/>
     </g>
     <g id="line2d_18">
      <g>
       <use xlink:href="#m5f138c3572" x="51.882031" y="349.210738" style="stroke: #000000; stroke-width: 0.8"/>
      </g>
     </g>
     <g id="text_10">
      <!-- −3 -->
      <g transform="translate(25.717188 354.149722) scale(0.13 -0.13)">
       <defs>
        <path id="DejaVuSans-33" d="M 2597 2516 
Q 3050 2419 3304 2112 
Q 3559 1806 3559 1356 
Q 3559 666 3084 287 
Q 2609 -91 1734 -91 
Q 1441 -91 1130 -33 
Q 819 25 488 141 
L 488 750 
Q 750 597 1062 519 
Q 1375 441 1716 441 
Q 2309 441 2620 675 
Q 2931 909 2931 1356 
Q 2931 1769 2642 2001 
Q 2353 2234 1838 2234 
L 1294 2234 
L 1294 2753 
L 1863 2753 
Q 2328 2753 2575 2939 
Q 2822 3125 2822 3475 
Q 2822 3834 2567 4026 
Q 2313 4219 1838 4219 
Q 1578 4219 1281 4162 
Q 984 4106 628 3988 
L 628 4550 
Q 988 4650 1302 4700 
Q 1616 4750 1894 4750 
Q 2613 4750 3031 4423 
Q 3450 4097 3450 3541 
Q 3450 3153 3228 2886 
Q 3006 2619 2597 2516 
z
" transform="scale(0.015625)"/>
       </defs>
       <use xlink:href="#DejaVuSans-2212"/>
       <use xlink:href="#DejaVuSans-33" x="83.789062"/>
      </g>
     </g>
    </g>
    <g id="ytick_4">
     <g id="line2d_19">
      <path d="M 51.882031 293.754803 
L 944.682031 293.754803 
" clip-path="url(#pede2c55dc0)" style="fill: none; stroke-dasharray: 1.85,0.8; stroke-dashoffset: 0; stroke: #d3d3d3; stroke-width: 0.5"/>
     </g>
     <g id="line2d_20">
      <g>
       <use xlink:href="#m5f138c3572" x="51.882031" y="293.754803" style="stroke: #000000; stroke-width: 0.8"/>
      </g>
     </g>
     <g id="text_11">
      <!-- −2 -->
      <g transform="translate(25.717188 298.693788) scale(0.13 -0.13)">
       <use xlink:href="#DejaVuSans-2212"/>
       <use xlink:href="#DejaVuSans-32" x="83.789062"/>
      </g>
     </g>
    </g>
    <g id="ytick_5">
     <g id="line2d_21">
      <path d="M 51.882031 238.298868 
L 944.682031 238.298868 
" clip-path="url(#pede2c55dc0)" style="fill: none; stroke-dasharray: 1.85,0.8; stroke-dashoffset: 0; stroke: #d3d3d3; stroke-width: 0.5"/>
     </g>
     <g id="line2d_22">
      <g>
       <use xlink:href="#m5f138c3572" x="51.882031" y="238.298868" style="stroke: #000000; stroke-width: 0.8"/>
      </g>
     </g>
     <g id="text_12">
      <!-- −1 -->
      <g transform="translate(25.717188 243.237853) scale(0.13 -0.13)">
       <use xlink:href="#DejaVuSans-2212"/>
       <use xlink:href="#DejaVuSans-31" x="83.789062"/>
      </g>
     </g>
    </g>
    <g id="ytick_6">
     <g id="line2d_23">
      <path d="M 51.882031 182.842934 
L 944.682031 182.842934 
" clip-path="url(#pede2c55dc0)" style="fill: none; stroke-dasharray: 1.85,0.8; stroke-dashoffset: 0; stroke: #d3d3d3; stroke-width: 0.5"/>
     </g>
     <g id="line2d_24">
      <g>
       <use xlink:href="#m5f138c3572" x="51.882031" y="182.842934" style="stroke: #000000; stroke-width: 0.8"/>
      </g>
     </g>
     <g id="text_13">
      <!-- 0 -->
      <g transform="translate(36.610781 187.781918) scale(0.13 -0.13)">
       <use xlink:href="#DejaVuSans-30"/>
      </g>
     </g>
    </g>
    <g id="ytick_7">
     <g id="line2d_25">
      <path d="M 51.882031 127.386999 
L 944.682031 127.386999 
" clip-path="url(#pede2c55dc0)" style="fill: none; stroke-dasharray: 1.85,0.8; stroke-dashoffset: 0; stroke: #d3d3d3; stroke-width: 0.5"/>
     </g>
     <g id="line2d_26">
      <g>
       <use xlink:href="#m5f138c3572" x="51.882031" y="127.386999" style="stroke: #000000; stroke-width: 0.8"/>
      </g>
     </g>
     <g id="text_14">
      <!-- 1 -->
      <g transform="translate(36.610781 132.325983) scale(0.13 -0.13)">
       <use xlink:href="#DejaVuSans-31"/>
      </g>
     </g>
    </g>
    <g id="ytick_8">
     <g id="line2d_27">
      <path d="M 51.882031 71.931064 
L 944.682031 71.931064 
" clip-path="url(#pede2c55dc0)" style="fill: none; stroke-dasharray: 1.85,0.8; stroke-dashoffset: 0; stroke: #d3d3d3; stroke-width: 0.5"/>
     </g>
     <g id="line2d_28">
      <g>
       <use xlink:href="#m5f138c3572" x="51.882031" y="71.931064" style="stroke: #000000; stroke-width: 0.8"/>
      </g>
     </g>
     <g id="text_15">
      <!-- 2 -->
      <g transform="translate(36.610781 76.870049) scale(0.13 -0.13)">
       <use xlink:href="#DejaVuSans-32"/>
      </g>
     </g>
    </g>
    <g id="text_16">
     <!-- Point Surface Mass Balance [m w.e.] -->
     <g transform="translate(18.597656 382.248281) rotate(-90) scale(0.15 -0.15)">
      <defs>
       <path id="DejaVuSans-50" d="M 1259 4147 
L 1259 2394 
L 2053 2394 
Q 2494 2394 2734 2622 
Q 2975 2850 2975 3272 
Q 2975 3691 2734 3919 
Q 2494 4147 2053 4147 
L 1259 4147 
z
M 628 4666 
L 2053 4666 
Q 2838 4666 3239 4311 
Q 3641 3956 3641 3272 
Q 3641 2581 3239 2228 
Q 2838 1875 2053 1875 
L 1259 1875 
L 1259 0 
L 628 0 
L 628 4666 
z
" transform="scale(0.015625)"/>
       <path id="DejaVuSans-6f" d="M 1959 3097 
Q 1497 3097 1228 2736 
Q 959 2375 959 1747 
Q 959 1119 1226 758 
Q 1494 397 1959 397 
Q 2419 397 2687 759 
Q 2956 1122 2956 1747 
Q 2956 2369 2687 2733 
Q 2419 3097 1959 3097 
z
M 1959 3584 
Q 2709 3584 3137 3096 
Q 3566 2609 3566 1747 
Q 3566 888 3137 398 
Q 2709 -91 1959 -91 
Q 1206 -91 779 398 
Q 353 888 353 1747 
Q 353 2609 779 3096 
Q 1206 3584 1959 3584 
z
" transform="scale(0.015625)"/>
       <path id="DejaVuSans-69" d="M 603 3500 
L 1178 3500 
L 1178 0 
L 603 0 
L 603 3500 
z
M 603 4863 
L 1178 4863 
L 1178 4134 
L 603 4134 
L 603 4863 
z
" transform="scale(0.015625)"/>
       <path id="DejaVuSans-6e" d="M 3513 2113 
L 3513 0 
L 2938 0 
L 2938 2094 
Q 2938 2591 2744 2837 
Q 2550 3084 2163 3084 
Q 1697 3084 1428 2787 
Q 1159 2491 1159 1978 
L 1159 0 
L 581 0 
L 581 3500 
L 1159 3500 
L 1159 2956 
Q 1366 3272 1645 3428 
Q 1925 3584 2291 3584 
Q 2894 3584 3203 3211 
Q 3513 2838 3513 2113 
z
" transform="scale(0.015625)"/>
       <path id="DejaVuSans-74" d="M 1172 4494 
L 1172 3500 
L 2356 3500 
L 2356 3053 
L 1172 3053 
L 1172 1153 
Q 1172 725 1289 603 
Q 1406 481 1766 481 
L 2356 481 
L 2356 0 
L 1766 0 
Q 1100 0 847 248 
Q 594 497 594 1153 
L 594 3053 
L 172 3053 
L 172 3500 
L 594 3500 
L 594 4494 
L 1172 4494 
z
" transform="scale(0.015625)"/>
       <path id="DejaVuSans-20" transform="scale(0.015625)"/>
       <path id="DejaVuSans-53" d="M 3425 4513 
L 3425 3897 
Q 3066 4069 2747 4153 
Q 2428 4238 2131 4238 
Q 1616 4238 1336 4038 
Q 1056 3838 1056 3469 
Q 1056 3159 1242 3001 
Q 1428 2844 1947 2747 
L 2328 2669 
Q 3034 2534 3370 2195 
Q 3706 1856 3706 1288 
Q 3706 609 3251 259 
Q 2797 -91 1919 -91 
Q 1588 -91 1214 -16 
Q 841 59 441 206 
L 441 856 
Q 825 641 1194 531 
Q 1563 422 1919 422 
Q 2459 422 2753 634 
Q 3047 847 3047 1241 
Q 3047 1584 2836 1778 
Q 2625 1972 2144 2069 
L 1759 2144 
Q 1053 2284 737 2584 
Q 422 2884 422 3419 
Q 422 4038 858 4394 
Q 1294 4750 2059 4750 
Q 2388 4750 2728 4690 
Q 3069 4631 3425 4513 
z
" transform="scale(0.015625)"/>
       <path id="DejaVuSans-75" d="M 544 1381 
L 544 3500 
L 1119 3500 
L 1119 1403 
Q 1119 906 1312 657 
Q 1506 409 1894 409 
Q 2359 409 2629 706 
Q 2900 1003 2900 1516 
L 2900 3500 
L 3475 3500 
L 3475 0 
L 2900 0 
L 2900 538 
Q 2691 219 2414 64 
Q 2138 -91 1772 -91 
Q 1169 -91 856 284 
Q 544 659 544 1381 
z
M 1991 3584 
L 1991 3584 
z
" transform="scale(0.015625)"/>
       <path id="DejaVuSans-66" d="M 2375 4863 
L 2375 4384 
L 1825 4384 
Q 1516 4384 1395 4259 
Q 1275 4134 1275 3809 
L 1275 3500 
L 2222 3500 
L 2222 3053 
L 1275 3053 
L 1275 0 
L 697 0 
L 697 3053 
L 147 3053 
L 147 3500 
L 697 3500 
L 697 3744 
Q 697 4328 969 4595 
Q 1241 4863 1831 4863 
L 2375 4863 
z
" transform="scale(0.015625)"/>
       <path id="DejaVuSans-63" d="M 3122 3366 
L 3122 2828 
Q 2878 2963 2633 3030 
Q 2388 3097 2138 3097 
Q 1578 3097 1268 2742 
Q 959 2388 959 1747 
Q 959 1106 1268 751 
Q 1578 397 2138 397 
Q 2388 397 2633 464 
Q 2878 531 3122 666 
L 3122 134 
Q 2881 22 2623 -34 
Q 2366 -91 2075 -91 
Q 1284 -91 818 406 
Q 353 903 353 1747 
Q 353 2603 823 3093 
Q 1294 3584 2113 3584 
Q 2378 3584 2631 3529 
Q 2884 3475 3122 3366 
z
" transform="scale(0.015625)"/>
       <path id="DejaVuSans-4d" d="M 628 4666 
L 1569 4666 
L 2759 1491 
L 3956 4666 
L 4897 4666 
L 4897 0 
L 4281 0 
L 4281 4097 
L 3078 897 
L 2444 897 
L 1241 4097 
L 1241 0 
L 628 0 
L 628 4666 
z
" transform="scale(0.015625)"/>
       <path id="DejaVuSans-42" d="M 1259 2228 
L 1259 519 
L 2272 519 
Q 2781 519 3026 730 
Q 3272 941 3272 1375 
Q 3272 1813 3026 2020 
Q 2781 2228 2272 2228 
L 1259 2228 
z
M 1259 4147 
L 1259 2741 
L 2194 2741 
Q 2656 2741 2882 2914 
Q 3109 3088 3109 3444 
Q 3109 3797 2882 3972 
Q 2656 4147 2194 4147 
L 1259 4147 
z
M 628 4666 
L 2241 4666 
Q 2963 4666 3353 4366 
Q 3744 4066 3744 3513 
Q 3744 3084 3544 2831 
Q 3344 2578 2956 2516 
Q 3422 2416 3680 2098 
Q 3938 1781 3938 1306 
Q 3938 681 3513 340 
Q 3088 0 2303 0 
L 628 0 
L 628 4666 
z
" transform="scale(0.015625)"/>
       <path id="DejaVuSans-6c" d="M 603 4863 
L 1178 4863 
L 1178 0 
L 603 0 
L 603 4863 
z
" transform="scale(0.015625)"/>
       <path id="DejaVuSans-5b" d="M 550 4863 
L 1875 4863 
L 1875 4416 
L 1125 4416 
L 1125 -397 
L 1875 -397 
L 1875 -844 
L 550 -844 
L 550 4863 
z
" transform="scale(0.015625)"/>
       <path id="DejaVuSans-6d" d="M 3328 2828 
Q 3544 3216 3844 3400 
Q 4144 3584 4550 3584 
Q 5097 3584 5394 3201 
Q 5691 2819 5691 2113 
L 5691 0 
L 5113 0 
L 5113 2094 
Q 5113 2597 4934 2840 
Q 4756 3084 4391 3084 
Q 3944 3084 3684 2787 
Q 3425 2491 3425 1978 
L 3425 0 
L 2847 0 
L 2847 2094 
Q 2847 2600 2669 2842 
Q 2491 3084 2119 3084 
Q 1678 3084 1418 2786 
Q 1159 2488 1159 1978 
L 1159 0 
L 581 0 
L 581 3500 
L 1159 3500 
L 1159 2956 
Q 1356 3278 1631 3431 
Q 1906 3584 2284 3584 
Q 2666 3584 2933 3390 
Q 3200 3197 3328 2828 
z
" transform="scale(0.015625)"/>
       <path id="DejaVuSans-77" d="M 269 3500 
L 844 3500 
L 1563 769 
L 2278 3500 
L 2956 3500 
L 3675 769 
L 4391 3500 
L 4966 3500 
L 4050 0 
L 3372 0 
L 2619 2869 
L 1863 0 
L 1184 0 
L 269 3500 
z
" transform="scale(0.015625)"/>
       <path id="DejaVuSans-2e" d="M 684 794 
L 1344 794 
L 1344 0 
L 684 0 
L 684 794 
z
" transform="scale(0.015625)"/>
       <path id="DejaVuSans-5d" d="M 1947 4863 
L 1947 -844 
L 622 -844 
L 622 -397 
L 1369 -397 
L 1369 4416 
L 622 4416 
L 622 4863 
L 1947 4863 
z
" transform="scale(0.015625)"/>
      </defs>
      <use xlink:href="#DejaVuSans-50"/>
      <use xlink:href="#DejaVuSans-6f" x="56.677734"/>
      <use xlink:href="#DejaVuSans-69" x="117.859375"/>
      <use xlink:href="#DejaVuSans-6e" x="145.642578"/>
      <use xlink:href="#DejaVuSans-74" x="209.021484"/>
      <use xlink:href="#DejaVuSans-20" x="248.230469"/>
      <use xlink:href="#DejaVuSans-53" x="280.017578"/>
      <use xlink:href="#DejaVuSans-75" x="343.494141"/>
      <use xlink:href="#DejaVuSans-72" x="406.873047"/>
      <use xlink:href="#DejaVuSans-66" x="447.986328"/>
      <use xlink:href="#DejaVuSans-61" x="483.191406"/>
      <use xlink:href="#DejaVuSans-63" x="544.470703"/>
      <use xlink:href="#DejaVuSans-65" x="599.451172"/>
      <use xlink:href="#DejaVuSans-20" x="660.974609"/>
      <use xlink:href="#DejaVuSans-4d" x="692.761719"/>
      <use xlink:href="#DejaVuSans-61" x="779.041016"/>
      <use xlink:href="#DejaVuSans-73" x="840.320312"/>
      <use xlink:href="#DejaVuSans-73" x="892.419922"/>
      <use xlink:href="#DejaVuSans-20" x="944.519531"/>
      <use xlink:href="#DejaVuSans-42" x="976.306641"/>
      <use xlink:href="#DejaVuSans-61" x="1044.910156"/>
      <use xlink:href="#DejaVuSans-6c" x="1106.189453"/>
      <use xlink:href="#DejaVuSans-61" x="1133.972656"/>
      <use xlink:href="#DejaVuSans-6e" x="1195.251953"/>
      <use xlink:href="#DejaVuSans-63" x="1258.630859"/>
      <use xlink:href="#DejaVuSans-65" x="1313.611328"/>
      <use xlink:href="#DejaVuSans-20" x="1375.134766"/>
      <use xlink:href="#DejaVuSans-5b" x="1406.921875"/>
      <use xlink:href="#DejaVuSans-6d" x="1445.935547"/>
      <use xlink:href="#DejaVuSans-20" x="1543.347656"/>
      <use xlink:href="#DejaVuSans-77" x="1575.134766"/>
      <use xlink:href="#DejaVuSans-2e" x="1647.796875"/>
      <use xlink:href="#DejaVuSans-65" x="1679.583984"/>
      <use xlink:href="#DejaVuSans-2e" x="1741.107422"/>
      <use xlink:href="#DejaVuSans-5d" x="1772.894531"/>
     </g>
    </g>
   </g>
   <g id="line2d_29">
    <path d="M 51.882031 182.842934 
L 84.948698 182.842934 
L 118.015365 182.842934 
L 151.082031 182.842934 
L 184.148698 182.842934 
L 217.215365 182.842934 
L 250.282031 182.842934 
L 283.348698 182.842934 
L 316.415365 182.842934 
L 349.482031 182.842934 
L 382.548698 182.842934 
L 415.615365 182.842934 
L 448.682031 182.842934 
L 481.748698 182.842934 
L 514.815365 182.842934 
L 547.882031 182.842934 
L 580.948698 182.842934 
L 614.015365 182.842934 
L 647.082031 182.842934 
L 680.148698 182.842934 
L 713.215365 182.842934 
L 746.282031 182.842934 
L 779.348698 182.842934 
L 812.415365 182.842934 
L 845.482031 182.842934 
L 878.548698 182.842934 
L 911.615365 182.842934 
L 944.682031 182.842934 
" clip-path="url(#pede2c55dc0)" style="fill: none; stroke: #2e2e2e; stroke-linecap: square"/>
   </g>
   <g id="line2d_30">
    <path d="M 779.348698 80.249454 
L 812.415365 104.650066 
L 845.482031 110.195659 
L 878.548698 130.159796 
L 911.615365 133.487152 
L 944.682031 98.549913 
" clip-path="url(#pede2c55dc0)" style="fill: none; stroke: #1f77b4; stroke-opacity: 0.75; stroke-width: 0.9; stroke-linecap: square"/>
    <defs>
     <path id="m7a9eeda292" d="M 0 2 
C 0.530406 2 1.03916 1.789267 1.414214 1.414214 
C 1.789267 1.03916 2 0.530406 2 0 
C 2 -0.530406 1.789267 -1.03916 1.414214 -1.414214 
C 1.03916 -1.789267 0.530406 -2 0 -2 
C -0.530406 -2 -1.03916 -1.789267 -1.414214 -1.414214 
C -1.789267 -1.03916 -2 -0.530406 -2 0 
C -2 0.530406 -1.789267 1.03916 -1.414214 1.414214 
C -1.03916 1.789267 -0.530406 2 0 2 
z
" style="stroke: #1f77b4; stroke-opacity: 0.75"/>
    </defs>
    <g clip-path="url(#pede2c55dc0)">
     <use xlink:href="#m7a9eeda292" x="779.348698" y="80.249454" style="fill: #1f77b4; fill-opacity: 0.75; stroke: #1f77b4; stroke-opacity: 0.75"/>
     <use xlink:href="#m7a9eeda292" x="812.415365" y="104.650066" style="fill: #1f77b4; fill-opacity: 0.75; stroke: #1f77b4; stroke-opacity: 0.75"/>
     <use xlink:href="#m7a9eeda292" x="845.482031" y="110.195659" style="fill: #1f77b4; fill-opacity: 0.75; stroke: #1f77b4; stroke-opacity: 0.75"/>
     <use xlink:href="#m7a9eeda292" x="878.548698" y="130.159796" style="fill: #1f77b4; fill-opacity: 0.75; stroke: #1f77b4; stroke-opacity: 0.75"/>
     <use xlink:href="#m7a9eeda292" x="911.615365" y="133.487152" style="fill: #1f77b4; fill-opacity: 0.75; stroke: #1f77b4; stroke-opacity: 0.75"/>
     <use xlink:href="#m7a9eeda292" x="944.682031" y="98.549913" style="fill: #1f77b4; fill-opacity: 0.75; stroke: #1f77b4; stroke-opacity: 0.75"/>
    </g>
   </g>
   <g id="line2d_31">
    <path d="M 779.348698 126.27788 
L 812.415365 139.032745 
" clip-path="url(#pede2c55dc0)" style="fill: none; stroke: #ff7f0e; stroke-opacity: 0.75; stroke-width: 0.9; stroke-linecap: square"/>
    <defs>
     <path id="m33577e7958" d="M 0 1 
C 0.265203 1 0.51958 0.894634 0.707107 0.707107 
C 0.894634 0.51958 1 0.265203 1 0 
C 1 -0.265203 0.894634 -0.51958 0.707107 -0.707107 
C 0.51958 -0.894634 0.265203 -1 0 -1 
C -0.265203 -1 -0.51958 -0.894634 -0.707107 -0.707107 
C -0.894634 -0.51958 -1 -0.265203 -1 0 
C -1 0.265203 -0.894634 0.51958 -0.707107 0.707107 
C -0.51958 0.894634 -0.265203 1 0 1 
z
" style="stroke: #ff7f0e; stroke-opacity: 0.75"/>
    </defs>
    <g clip-path="url(#pede2c55dc0)">
     <use xlink:href="#m33577e7958" x="779.348698" y="126.27788" style="fill: #ff7f0e; fill-opacity: 0.75; stroke: #ff7f0e; stroke-opacity: 0.75"/>
     <use xlink:href="#m33577e7958" x="812.415365" y="139.032745" style="fill: #ff7f0e; fill-opacity: 0.75; stroke: #ff7f0e; stroke-opacity: 0.75"/>
    </g>
   </g>
   <g id="line2d_32">
    <path d="M 51.882031 68.049149 
L 84.948698 81.358573 
L 184.148698 125.168762 
L 217.215365 44.757656 
L 250.282031 92.44976 
L 316.415365 74.149302 
" clip-path="url(#pede2c55dc0)" style="fill: none; stroke: #2ca02c; stroke-opacity: 0.75; stroke-width: 0.9; stroke-linecap: square"/>
    <defs>
     <path id="m30411c67dd" d="M -0 2 
L 2 -2 
L -2 -2 
z
" style="stroke: #2ca02c; stroke-opacity: 0.75; stroke-linejoin: miter"/>
    </defs>
    <g clip-path="url(#pede2c55dc0)">
     <use xlink:href="#m30411c67dd" x="51.882031" y="68.049149" style="fill: #2ca02c; fill-opacity: 0.75; stroke: #2ca02c; stroke-opacity: 0.75; stroke-linejoin: miter"/>
     <use xlink:href="#m30411c67dd" x="84.948698" y="81.358573" style="fill: #2ca02c; fill-opacity: 0.75; stroke: #2ca02c; stroke-opacity: 0.75; stroke-linejoin: miter"/>
     <use xlink:href="#m30411c67dd" x="184.148698" y="125.168762" style="fill: #2ca02c; fill-opacity: 0.75; stroke: #2ca02c; stroke-opacity: 0.75; stroke-linejoin: miter"/>
     <use xlink:href="#m30411c67dd" x="217.215365" y="44.757656" style="fill: #2ca02c; fill-opacity: 0.75; stroke: #2ca02c; stroke-opacity: 0.75; stroke-linejoin: miter"/>
     <use xlink:href="#m30411c67dd" x="250.282031" y="92.44976" style="fill: #2ca02c; fill-opacity: 0.75; stroke: #2ca02c; stroke-opacity: 0.75; stroke-linejoin: miter"/>
     <use xlink:href="#m30411c67dd" x="316.415365" y="74.149302" style="fill: #2ca02c; fill-opacity: 0.75; stroke: #2ca02c; stroke-opacity: 0.75; stroke-linejoin: miter"/>
    </g>
   </g>
   <g id="line2d_33">
    <path d="M 84.948698 56.957962 
L 151.082031 80.249454 
L 184.148698 74.149302 
L 217.215365 86.904167 
L 250.282031 50.30325 
" clip-path="url(#pede2c55dc0)" style="fill: none; stroke: #d62728; stroke-opacity: 0.75; stroke-width: 0.9; stroke-linecap: square"/>
    <defs>
     <path id="m46a19ee971" d="M 0 -2 
L -2 2 
L 2 2 
z
" style="stroke: #d62728; stroke-opacity: 0.75; stroke-linejoin: miter"/>
    </defs>
    <g clip-path="url(#pede2c55dc0)">
     <use xlink:href="#m46a19ee971" x="84.948698" y="56.957962" style="fill: #d62728; fill-opacity: 0.75; stroke: #d62728; stroke-opacity: 0.75; stroke-linejoin: miter"/>
     <use xlink:href="#m46a19ee971" x="151.082031" y="80.249454" style="fill: #d62728; fill-opacity: 0.75; stroke: #d62728; stroke-opacity: 0.75; stroke-linejoin: miter"/>
     <use xlink:href="#m46a19ee971" x="184.148698" y="74.149302" style="fill: #d62728; fill-opacity: 0.75; stroke: #d62728; stroke-opacity: 0.75; stroke-linejoin: miter"/>
     <use xlink:href="#m46a19ee971" x="217.215365" y="86.904167" style="fill: #d62728; fill-opacity: 0.75; stroke: #d62728; stroke-opacity: 0.75; stroke-linejoin: miter"/>
     <use xlink:href="#m46a19ee971" x="250.282031" y="50.30325" style="fill: #d62728; fill-opacity: 0.75; stroke: #d62728; stroke-opacity: 0.75; stroke-linejoin: miter"/>
    </g>
   </g>
   <g id="line2d_34">
    <path d="M 51.882031 159.181735 
L 84.948698 153.451288 
L 151.082031 138.478186 
L 184.148698 125.723321 
L 217.215365 147.628415 
L 250.282031 132.747739 
L 316.415365 173.785131 
L 779.348698 270.463311 
L 812.415365 244.029315 
L 845.482031 288.948622 
L 878.548698 251.977999 
L 911.615365 278.596848 
L 944.682031 241.995931 
" clip-path="url(#pede2c55dc0)" style="fill: none; stroke-dasharray: 7.4,3.2; stroke-dashoffset: 0; stroke: #ff7f0e; stroke-width: 2"/>
   </g>
   <g id="line2d_35">
    <path clip-path="url(#pede2c55dc0)" style="fill: none; stroke: #4e8cd9; stroke-opacity: 0.75; stroke-linecap: square"/>
    <defs>
     <path id="m65a4970dd0" d="M 0 2 
C 0.530406 2 1.03916 1.789267 1.414214 1.414214 
C 1.789267 1.03916 2 0.530406 2 0 
C 2 -0.530406 1.789267 -1.03916 1.414214 -1.414214 
C 1.03916 -1.789267 0.530406 -2 0 -2 
C -0.530406 -2 -1.03916 -1.789267 -1.414214 -1.414214 
C -1.789267 -1.03916 -2 -0.530406 -2 0 
C -2 0.530406 -1.789267 1.03916 -1.414214 1.414214 
C -1.03916 1.789267 -0.530406 2 0 2 
z
" style="stroke: #4e8cd9; stroke-opacity: 0.75"/>
    </defs>
    <g clip-path="url(#pede2c55dc0)"/>
   </g>
   <g id="patch_3">
    <path d="M 51.882031 468.117656 
L 51.882031 24.597656 
" style="fill: none; stroke: #000000; stroke-width: 0.8; stroke-linejoin: miter; stroke-linecap: square"/>
   </g>
   <g id="patch_4">
    <path d="M 944.682031 468.117656 
L 944.682031 24.597656 
" style="fill: none; stroke: #000000; stroke-width: 0.8; stroke-linejoin: miter; stroke-linecap: square"/>
   </g>
   <g id="patch_5">
    <path d="M 51.882031 468.117656 
L 944.682031 468.117656 
" style="fill: none; stroke: #000000; stroke-width: 0.8; stroke-linejoin: miter; stroke-linecap: square"/>
   </g>
   <g id="patch_6">
    <path d="M 51.882031 24.597656 
L 944.682031 24.597656 
" style="fill: none; stroke: #000000; stroke-width: 0.8; stroke-linejoin: miter; stroke-linecap: square"/>
   </g>
   <g id="text_17">
    <!-- Average Annual SMB for all Stakes, from 1995 to 2022 -->
    <g transform="translate(294.079297 18.597656) scale(0.15 -0.15)">
     <defs>
      <path id="DejaVuSans-41" d="M 2188 4044 
L 1331 1722 
L 3047 1722 
L 2188 4044 
z
M 1831 4666 
L 2547 4666 
L 4325 0 
L 3669 0 
L 3244 1197 
L 1141 1197 
L 716 0 
L 50 0 
L 1831 4666 
z
" transform="scale(0.015625)"/>
      <path id="DejaVuSans-76" d="M 191 3500 
L 800 3500 
L 1894 563 
L 2988 3500 
L 3597 3500 
L 2284 0 
L 1503 0 
L 191 3500 
z
" transform="scale(0.015625)"/>
      <path id="DejaVuSans-67" d="M 2906 1791 
Q 2906 2416 2648 2759 
Q 2391 3103 1925 3103 
Q 1463 3103 1205 2759 
Q 947 2416 947 1791 
Q 947 1169 1205 825 
Q 1463 481 1925 481 
Q 2391 481 2648 825 
Q 2906 1169 2906 1791 
z
M 3481 434 
Q 3481 -459 3084 -895 
Q 2688 -1331 1869 -1331 
Q 1566 -1331 1297 -1286 
Q 1028 -1241 775 -1147 
L 775 -588 
Q 1028 -725 1275 -790 
Q 1522 -856 1778 -856 
Q 2344 -856 2625 -561 
Q 2906 -266 2906 331 
L 2906 616 
Q 2728 306 2450 153 
Q 2172 0 1784 0 
Q 1141 0 747 490 
Q 353 981 353 1791 
Q 353 2603 747 3093 
Q 1141 3584 1784 3584 
Q 2172 3584 2450 3431 
Q 2728 3278 2906 2969 
L 2906 3500 
L 3481 3500 
L 3481 434 
z
" transform="scale(0.015625)"/>
      <path id="DejaVuSans-6b" d="M 581 4863 
L 1159 4863 
L 1159 1991 
L 2875 3500 
L 3609 3500 
L 1753 1863 
L 3688 0 
L 2938 0 
L 1159 1709 
L 1159 0 
L 581 0 
L 581 4863 
z
" transform="scale(0.015625)"/>
      <path id="DejaVuSans-2c" d="M 750 794 
L 1409 794 
L 1409 256 
L 897 -744 
L 494 -744 
L 750 256 
L 750 794 
z
" transform="scale(0.015625)"/>
     </defs>
     <use xlink:href="#DejaVuSans-41"/>
     <use xlink:href="#DejaVuSans-76" x="62.533203"/>
     <use xlink:href="#DejaVuSans-65" x="121.712891"/>
     <use xlink:href="#DejaVuSans-72" x="183.236328"/>
     <use xlink:href="#DejaVuSans-61" x="224.349609"/>
     <use xlink:href="#DejaVuSans-67" x="285.628906"/>
     <use xlink:href="#DejaVuSans-65" x="349.105469"/>
     <use xlink:href="#DejaVuSans-20" x="410.628906"/>
     <use xlink:href="#DejaVuSans-41" x="442.416016"/>
     <use xlink:href="#DejaVuSans-6e" x="510.824219"/>
     <use xlink:href="#DejaVuSans-6e" x="574.203125"/>
     <use xlink:href="#DejaVuSans-75" x="637.582031"/>
     <use xlink:href="#DejaVuSans-61" x="700.960938"/>
     <use xlink:href="#DejaVuSans-6c" x="762.240234"/>
     <use xlink:href="#DejaVuSans-20" x="790.023438"/>
     <use xlink:href="#DejaVuSans-53" x="821.810547"/>
     <use xlink:href="#DejaVuSans-4d" x="885.287109"/>
     <use xlink:href="#DejaVuSans-42" x="971.566406"/>
     <use xlink:href="#DejaVuSans-20" x="1040.169922"/>
     <use xlink:href="#DejaVuSans-66" x="1071.957031"/>
     <use xlink:href="#DejaVuSans-6f" x="1107.162109"/>
     <use xlink:href="#DejaVuSans-72" x="1168.34375"/>
     <use xlink:href="#DejaVuSans-20" x="1209.457031"/>
     <use xlink:href="#DejaVuSans-61" x="1241.244141"/>
     <use xlink:href="#DejaVuSans-6c" x="1302.523438"/>
     <use xlink:href="#DejaVuSans-6c" x="1330.306641"/>
     <use xlink:href="#DejaVuSans-20" x="1358.089844"/>
     <use xlink:href="#DejaVuSans-53" x="1389.876953"/>
     <use xlink:href="#DejaVuSans-74" x="1453.353516"/>
     <use xlink:href="#DejaVuSans-61" x="1492.5625"/>
     <use xlink:href="#DejaVuSans-6b" x="1553.841797"/>
     <use xlink:href="#DejaVuSans-65" x="1608.126953"/>
     <use xlink:href="#DejaVuSans-73" x="1669.650391"/>
     <use xlink:href="#DejaVuSans-2c" x="1721.75"/>
     <use xlink:href="#DejaVuSans-20" x="1753.537109"/>
     <use xlink:href="#DejaVuSans-66" x="1785.324219"/>
     <use xlink:href="#DejaVuSans-72" x="1820.529297"/>
     <use xlink:href="#DejaVuSans-6f" x="1859.392578"/>
     <use xlink:href="#DejaVuSans-6d" x="1920.574219"/>
     <use xlink:href="#DejaVuSans-20" x="2017.986328"/>
     <use xlink:href="#DejaVuSans-31" x="2049.773438"/>
     <use xlink:href="#DejaVuSans-39" x="2113.396484"/>
     <use xlink:href="#DejaVuSans-39" x="2177.019531"/>
     <use xlink:href="#DejaVuSans-35" x="2240.642578"/>
     <use xlink:href="#DejaVuSans-20" x="2304.265625"/>
     <use xlink:href="#DejaVuSans-74" x="2336.052734"/>
     <use xlink:href="#DejaVuSans-6f" x="2375.261719"/>
     <use xlink:href="#DejaVuSans-20" x="2436.443359"/>
     <use xlink:href="#DejaVuSans-32" x="2468.230469"/>
     <use xlink:href="#DejaVuSans-30" x="2531.853516"/>
     <use xlink:href="#DejaVuSans-32" x="2595.476562"/>
     <use xlink:href="#DejaVuSans-32" x="2659.099609"/>
    </g>
   </g>
   <g id="legend_1">
    <g id="patch_7">
     <path d="M 787.482031 76.632031 
L 937.682031 76.632031 
Q 939.682031 76.632031 939.682031 74.632031 
L 939.682031 31.597656 
Q 939.682031 29.597656 937.682031 29.597656 
L 787.482031 29.597656 
Q 785.482031 29.597656 785.482031 31.597656 
L 785.482031 74.632031 
Q 785.482031 76.632031 787.482031 76.632031 
z
" style="fill: #ffffff; opacity: 0.8; stroke: #cccccc; stroke-linejoin: miter"/>
    </g>
    <g id="line2d_36">
     <path d="M 789.482031 37.696094 
L 799.482031 37.696094 
L 809.482031 37.696094 
" style="fill: none; stroke-dasharray: 7.4,3.2; stroke-dashoffset: 0; stroke: #ff7f0e; stroke-width: 2"/>
    </g>
    <g id="text_18">
     <!-- Mean Annual Point SMB -->
     <g transform="translate(817.482031 41.196094) scale(0.1 -0.1)">
      <use xlink:href="#DejaVuSans-4d"/>
      <use xlink:href="#DejaVuSans-65" x="86.279297"/>
      <use xlink:href="#DejaVuSans-61" x="147.802734"/>
      <use xlink:href="#DejaVuSans-6e" x="209.082031"/>
      <use xlink:href="#DejaVuSans-20" x="272.460938"/>
      <use xlink:href="#DejaVuSans-41" x="304.248047"/>
      <use xlink:href="#DejaVuSans-6e" x="372.65625"/>
      <use xlink:href="#DejaVuSans-6e" x="436.035156"/>
      <use xlink:href="#DejaVuSans-75" x="499.414062"/>
      <use xlink:href="#DejaVuSans-61" x="562.792969"/>
      <use xlink:href="#DejaVuSans-6c" x="624.072266"/>
      <use xlink:href="#DejaVuSans-20" x="651.855469"/>
      <use xlink:href="#DejaVuSans-50" x="683.642578"/>
      <use xlink:href="#DejaVuSans-6f" x="740.320312"/>
      <use xlink:href="#DejaVuSans-69" x="801.501953"/>
      <use xlink:href="#DejaVuSans-6e" x="829.285156"/>
      <use xlink:href="#DejaVuSans-74" x="892.664062"/>
      <use xlink:href="#DejaVuSans-20" x="931.873047"/>
      <use xlink:href="#DejaVuSans-53" x="963.660156"/>
      <use xlink:href="#DejaVuSans-4d" x="1027.136719"/>
      <use xlink:href="#DejaVuSans-42" x="1113.416016"/>
     </g>
    </g>
    <g id="patch_8">
     <path d="M 789.482031 55.874219 
L 809.482031 55.874219 
L 809.482031 48.874219 
L 789.482031 48.874219 
z
" style="fill: #ffa500; fill-opacity: 0.3; stroke: #ffa500; stroke-opacity: 0.3; stroke-linejoin: miter"/>
    </g>
    <g id="text_19">
     <!-- Std Annual Point SMB -->
     <g transform="translate(817.482031 55.874219) scale(0.1 -0.1)">
      <defs>
       <path id="DejaVuSans-64" d="M 2906 2969 
L 2906 4863 
L 3481 4863 
L 3481 0 
L 2906 0 
L 2906 525 
Q 2725 213 2448 61 
Q 2172 -91 1784 -91 
Q 1150 -91 751 415 
Q 353 922 353 1747 
Q 353 2572 751 3078 
Q 1150 3584 1784 3584 
Q 2172 3584 2448 3432 
Q 2725 3281 2906 2969 
z
M 947 1747 
Q 947 1113 1208 752 
Q 1469 391 1925 391 
Q 2381 391 2643 752 
Q 2906 1113 2906 1747 
Q 2906 2381 2643 2742 
Q 2381 3103 1925 3103 
Q 1469 3103 1208 2742 
Q 947 2381 947 1747 
z
" transform="scale(0.015625)"/>
      </defs>
      <use xlink:href="#DejaVuSans-53"/>
      <use xlink:href="#DejaVuSans-74" x="63.476562"/>
      <use xlink:href="#DejaVuSans-64" x="102.685547"/>
      <use xlink:href="#DejaVuSans-20" x="166.162109"/>
      <use xlink:href="#DejaVuSans-41" x="197.949219"/>
      <use xlink:href="#DejaVuSans-6e" x="266.357422"/>
      <use xlink:href="#DejaVuSans-6e" x="329.736328"/>
      <use xlink:href="#DejaVuSans-75" x="393.115234"/>
      <use xlink:href="#DejaVuSans-61" x="456.494141"/>
      <use xlink:href="#DejaVuSans-6c" x="517.773438"/>
      <use xlink:href="#DejaVuSans-20" x="545.556641"/>
      <use xlink:href="#DejaVuSans-50" x="577.34375"/>
      <use xlink:href="#DejaVuSans-6f" x="634.021484"/>
      <use xlink:href="#DejaVuSans-69" x="695.203125"/>
      <use xlink:href="#DejaVuSans-6e" x="722.986328"/>
      <use xlink:href="#DejaVuSans-74" x="786.365234"/>
      <use xlink:href="#DejaVuSans-20" x="825.574219"/>
      <use xlink:href="#DejaVuSans-53" x="857.361328"/>
      <use xlink:href="#DejaVuSans-4d" x="920.837891"/>
      <use xlink:href="#DejaVuSans-42" x="1007.117188"/>
     </g>
    </g>
    <g id="line2d_37">
     <path d="M 789.482031 67.052344 
L 799.482031 67.052344 
L 809.482031 67.052344 
" style="fill: none; stroke: #4e8cd9; stroke-opacity: 0.75; stroke-linecap: square"/>
     <g>
      <use xlink:href="#m65a4970dd0" x="799.482031" y="67.052344" style="fill: #4e8cd9; fill-opacity: 0.75; stroke: #4e8cd9; stroke-opacity: 0.75"/>
     </g>
    </g>
    <g id="text_20">
     <!-- Annual SMB per Stake -->
     <g transform="translate(817.482031 70.552344) scale(0.1 -0.1)">
      <defs>
       <path id="DejaVuSans-70" d="M 1159 525 
L 1159 -1331 
L 581 -1331 
L 581 3500 
L 1159 3500 
L 1159 2969 
Q 1341 3281 1617 3432 
Q 1894 3584 2278 3584 
Q 2916 3584 3314 3078 
Q 3713 2572 3713 1747 
Q 3713 922 3314 415 
Q 2916 -91 2278 -91 
Q 1894 -91 1617 61 
Q 1341 213 1159 525 
z
M 3116 1747 
Q 3116 2381 2855 2742 
Q 2594 3103 2138 3103 
Q 1681 3103 1420 2742 
Q 1159 2381 1159 1747 
Q 1159 1113 1420 752 
Q 1681 391 2138 391 
Q 2594 391 2855 752 
Q 3116 1113 3116 1747 
z
" transform="scale(0.015625)"/>
      </defs>
      <use xlink:href="#DejaVuSans-41"/>
      <use xlink:href="#DejaVuSans-6e" x="68.408203"/>
      <use xlink:href="#DejaVuSans-6e" x="131.787109"/>
      <use xlink:href="#DejaVuSans-75" x="195.166016"/>
      <use xlink:href="#DejaVuSans-61" x="258.544922"/>
      <use xlink:href="#DejaVuSans-6c" x="319.824219"/>
      <use xlink:href="#DejaVuSans-20" x="347.607422"/>
      <use xlink:href="#DejaVuSans-53" x="379.394531"/>
      <use xlink:href="#DejaVuSans-4d" x="442.871094"/>
      <use xlink:href="#DejaVuSans-42" x="529.150391"/>
      <use xlink:href="#DejaVuSans-20" x="597.753906"/>
      <use xlink:href="#DejaVuSans-70" x="629.541016"/>
      <use xlink:href="#DejaVuSans-65" x="693.017578"/>
      <use xlink:href="#DejaVuSans-72" x="754.541016"/>
      <use xlink:href="#DejaVuSans-20" x="795.654297"/>
      <use xlink:href="#DejaVuSans-53" x="827.441406"/>
      <use xlink:href="#DejaVuSans-74" x="890.917969"/>
      <use xlink:href="#DejaVuSans-61" x="930.126953"/>
      <use xlink:href="#DejaVuSans-6b" x="991.40625"/>
      <use xlink:href="#DejaVuSans-65" x="1045.691406"/>
     </g>
    </g>
   </g>
  </g>
 </g>
 <defs>
  <clipPath id="pede2c55dc0">
   <rect x="51.882031" y="24.597656" width="892.8" height="443.52"/>
  </clipPath>
 </defs>
</svg>
